<?xml version="1.0" encoding="iso-8859-1"?>
<!-- Generator: Adobe Illustrator 16.0.3, SVG Export Plug-In . SVG Version: 6.00 Build 0)  -->
<!DOCTYPE svg PUBLIC "-//W3C//DTD SVG 1.1//EN" "http://www.w3.org/Graphics/SVG/1.1/DTD/svg11.dtd">
<svg version="1.1" id="icon" xmlns="http://www.w3.org/2000/svg" xmlns:xlink="http://www.w3.org/1999/xlink" x="0px" y="0px"
	 width="24.521px" height="20.564px" viewBox="0 0 24.521 20.564" style="enable-background:new 0 0 24.521 20.564;"
	 xml:space="preserve">
<path style="fill:#FFFFFF;" d="M24.521,2.368l-2.299,2.367c0,0,0-0.215,0,0.396c0,0.433-0.068,0.846-0.166,1.248
	c-0.055,3.258-1.062,7.578-5.199,10.987C8.72,24.073,0,18.154,0,18.154c6.896,0,6.896-2.367,6.896-2.367
	c-1.533,0-4.599-3.157-4.599-3.157c0.767,0.79,2.3,0,2.3,0c-3.832-2.367-3.832-4.736-3.832-4.736c0.766,0.789,2.299,0,2.299,0
	C-0.766,4.736,1.532,0.79,1.532,0.79c0.767,3.945,10.729,5.524,10.729,5.524l0.126-0.064c-0.078-0.361-0.126-1.128-0.126-1.515
	c0-2.833,2.229-4.735,4.98-4.735c1.514,0,2.854,0.711,3.767,1.809l0.448-0.229L23.755,0l-1.531,3.157L24.521,2.368z"/>
</svg>
